<svg xmlns="http://www.w3.org/2000/svg" viewBox="0 0 277 245.61"><defs><style>.cls-1{fill:#f3a712;}.cls-2{fill:#e5ddc2;}.cls-3{fill:#44372e;}</style></defs><g id="Layer_2" data-name="Layer 2"><g id="Background"><rect class="cls-1" width="277" height="245.61" rx="50"/></g><g id="Objects"><polygon class="cls-2" points="76.6 197.97 130.9 94.05 88.79 94.05 88.79 52.98 199.41 52.98 145.11 156.7 186.23 156.7 186.23 197.97 76.6 197.97"/><path class="cls-3" d="M192.8,57,131.74,173.62h36.79v7H120L184.77,57h8m-15.07,0L113.34,180.67h-8.41L166.18,64H92.79V57h84.94M156.2,69.7,94.75,186.93h80.43V167.75H142.11l3.72-7.05h36.4V194h-99L144.46,76.74H99.83V83h34.45l-3.52,7h-38V69.7H156.2M206,49H84.79V98.05H124.3L76.11,190.27,70,202H190.23V152.7H151.72l48.17-92L206,49Z"/></g></g></svg>